<svg width="100" height="101" viewBox="0 0 100 101" fill="none" xmlns="http://www.w3.org/2000/svg">
<path d="M100 0.273438H6.10352e-05V100.273H100V0.273438Z" fill="white"/>
<path d="M32.3213 47.2805C31.9839 47.2826 31.661 47.4175 31.4225 47.656C31.1839 47.8945 31.049 48.2175 31.047 48.5548V50.9146C31.0218 51.2343 30.877 51.5327 30.6416 51.7503C30.4061 51.968 30.0973 52.0888 29.7766 52.0888C29.4559 52.0888 29.1471 51.968 28.9117 51.7503C28.6762 51.5327 28.5315 51.2343 28.5063 50.9146V51.0719C28.5063 50.734 28.372 50.4098 28.1331 50.1709C27.8941 49.9319 27.5699 49.7976 27.232 49.7976C26.894 49.7976 26.5699 49.9319 26.331 50.1709C26.092 50.4098 25.9577 50.734 25.9577 51.0719V72.0032C25.9577 72.3412 26.092 72.6653 26.331 72.9042C26.5699 73.1433 26.894 73.2775 27.232 73.2775C27.5699 73.2775 27.8941 73.1433 28.1331 72.9042C28.372 72.6653 28.5063 72.3412 28.5063 72.0032V65.3643C28.4925 65.1892 28.5151 65.013 28.5727 64.8468C28.6303 64.6808 28.7216 64.5284 28.8408 64.3993C28.9602 64.2703 29.1049 64.1673 29.2659 64.0968C29.427 64.0264 29.6008 63.99 29.7766 63.99C29.9524 63.99 30.1263 64.0264 30.2873 64.0968C30.4483 64.1673 30.593 64.2703 30.7124 64.3993C30.8317 64.5284 30.923 64.6808 30.9806 64.8468C31.0382 65.013 31.0608 65.1892 31.047 65.3643V69.4546C31.047 69.7926 31.1812 70.1167 31.4202 70.3557C31.6592 70.5946 31.9833 70.7289 32.3213 70.7289C32.6592 70.7289 32.9833 70.5946 33.2223 70.3557C33.4613 70.1167 33.5956 69.7926 33.5956 69.4546V48.5391C33.5914 48.2038 33.4554 47.8838 33.2168 47.6482C32.9783 47.4126 32.6565 47.2805 32.3213 47.2805ZM29.7806 62.3124C29.613 62.3135 29.4467 62.2812 29.2917 62.2175C29.1366 62.1538 28.9957 62.06 28.8772 61.9415C28.7586 61.8229 28.6648 61.682 28.6012 61.5269C28.5375 61.3719 28.5053 61.2057 28.5063 61.0381V55.2959C28.4925 55.1207 28.5151 54.9445 28.5727 54.7784C28.6303 54.6124 28.7216 54.46 28.8408 54.3309C28.9602 54.2018 29.1049 54.0989 29.2659 54.0284C29.427 53.958 29.6008 53.9216 29.7766 53.9216C29.9524 53.9216 30.1263 53.958 30.2873 54.0284C30.4483 54.0989 30.593 54.2018 30.7124 54.3309C30.8317 54.46 30.923 54.6124 30.9806 54.7784C31.0382 54.9445 31.0608 55.1207 31.047 55.2959V61.0381C31.048 61.2051 31.0161 61.3706 30.9528 61.5251C30.8897 61.6797 30.7965 61.8203 30.6789 61.9386C30.5611 62.0571 30.4212 62.1511 30.2671 62.2152C30.1129 62.2794 29.9476 62.3124 29.7806 62.3124Z" fill="#414042"/>
<path d="M42.4999 36.74C42.3336 36.74 42.169 36.7728 42.0153 36.8365C41.8616 36.9001 41.722 36.9934 41.6044 37.111C41.4868 37.2286 41.3935 37.3682 41.3299 37.5218C41.2663 37.6754 41.2335 37.8402 41.2335 38.0064V54.7059C41.2335 55.0439 41.0993 55.3679 40.8603 55.6069C40.6212 55.8459 40.2972 55.9801 39.9592 55.9801C39.6212 55.9801 39.2971 55.8459 39.0581 55.6069C38.8192 55.3679 38.685 55.0439 38.685 54.7059V41.908C38.6987 41.7328 38.6761 41.5566 38.6185 41.3905C38.5609 41.2244 38.4697 41.072 38.3503 40.943C38.231 40.8139 38.0863 40.7109 37.9253 40.6404C37.7642 40.57 37.5903 40.5337 37.4146 40.5337C37.2388 40.5337 37.065 40.57 36.9039 40.6404C36.7428 40.7109 36.5981 40.8139 36.4788 40.943C36.3595 41.072 36.2681 41.2244 36.2106 41.3905C36.153 41.5566 36.1304 41.7328 36.1442 41.908V62.8392C36.1304 63.0145 36.153 63.1907 36.2106 63.3567C36.2681 63.5229 36.3595 63.6752 36.4788 63.8042C36.5981 63.9333 36.7428 64.0364 36.9039 64.1068C37.065 64.1772 37.2388 64.2136 37.4146 64.2136C37.5903 64.2136 37.7642 64.1772 37.9253 64.1068C38.0863 64.0364 38.231 63.9333 38.3503 63.8042C38.4697 63.6752 38.5609 63.5229 38.6185 63.3567C38.6761 63.1907 38.6987 63.0145 38.685 62.8392V59.0243C38.685 58.6863 38.8192 58.3622 39.0581 58.1232C39.2971 57.8842 39.6212 57.75 39.9592 57.75C40.2972 57.75 40.6212 57.8842 40.8603 58.1232C41.0993 58.3622 41.2335 58.6863 41.2335 59.0243V58.9063C41.2586 59.2259 41.4034 59.5244 41.6389 59.742C41.8744 59.9597 42.1832 60.0806 42.5038 60.0806C42.8245 60.0806 43.1334 59.9597 43.3688 59.742C43.6043 59.5244 43.749 59.2259 43.7742 58.9063V37.9671C43.7639 37.6367 43.625 37.3235 43.3869 37.0942C43.1487 36.8649 42.8304 36.7378 42.4999 36.74Z" fill="#414042"/>
<path d="M52.6784 28.5908C52.3404 28.5908 52.0163 28.7251 51.7773 28.9641C51.5384 29.203 51.4041 29.5271 51.4041 29.8651V33.3891C51.4041 33.727 51.2698 34.0512 51.0309 34.2901C50.7919 34.5291 50.4677 34.6634 50.1298 34.6634C49.7918 34.6634 49.4677 34.5291 49.2288 34.2901C48.9898 34.0512 48.8555 33.727 48.8555 33.3891V32.7283C48.8304 32.4087 48.6856 32.1102 48.4501 31.8926C48.2147 31.6749 47.9058 31.5541 47.5852 31.5541C47.2646 31.5541 46.9557 31.6749 46.7202 31.8926C46.4847 32.1102 46.34 32.4087 46.3148 32.7283V53.6597C46.3011 53.835 46.3236 54.0111 46.3812 54.1772C46.4388 54.3433 46.5301 54.4956 46.6495 54.6247C46.7687 54.7538 46.9134 54.8568 47.0745 54.9273C47.2355 54.9977 47.4094 55.0341 47.5852 55.0341C47.761 55.0341 47.9348 54.9977 48.0958 54.9273C48.2569 54.8568 48.4017 54.7538 48.5209 54.6247C48.6402 54.4956 48.7316 54.3433 48.7891 54.1772C48.8467 54.0111 48.8693 53.835 48.8555 53.6597V37.739C48.8555 37.401 48.9898 37.0769 49.2288 36.8379C49.4677 36.5989 49.7918 36.4647 50.1298 36.4647C50.4677 36.4647 50.7919 36.5989 51.0309 36.8379C51.2698 37.0769 51.4041 37.401 51.4041 37.739V50.7965C51.4041 51.1344 51.5384 51.4586 51.7773 51.6976C52.0163 51.9365 52.3404 52.0708 52.6784 52.0708C53.0163 52.0708 53.3405 51.9365 53.5794 51.6976C53.8184 51.4586 53.9527 51.1344 53.9527 50.7965V29.8651C53.9505 29.5278 53.8157 29.2048 53.5772 28.9663C53.3387 28.7278 53.0157 28.5929 52.6784 28.5908Z" fill="#414042"/>
<path d="M73.0355 49.6323C72.6989 49.6344 72.3768 49.7695 72.1396 50.0083C71.9022 50.247 71.7691 50.57 71.7692 50.9066V52.7236C71.7692 53.0616 71.6349 53.3857 71.3959 53.6247C71.1569 53.8636 70.8328 53.9979 70.4949 53.9979C70.1569 53.9979 69.8328 53.8636 69.5937 53.6247C69.3548 53.3857 69.2206 53.0616 69.2206 52.7236V47.6029C69.2206 47.2649 69.0863 46.9408 68.8473 46.7018C68.6084 46.4629 68.2842 46.3286 67.9463 46.3286C67.6083 46.3286 67.2842 46.4629 67.0453 46.7018C66.8062 46.9408 66.672 47.2649 66.672 47.6029V58.5444C66.6468 58.8641 66.502 59.1625 66.2666 59.3801C66.0311 59.5978 65.7223 59.7187 65.4016 59.7187C65.081 59.7187 64.7722 59.5978 64.5366 59.3801C64.3012 59.1625 64.1564 58.8641 64.1312 58.5444V41.8056C64.1312 41.4677 63.997 41.1436 63.758 40.9046C63.519 40.6656 63.195 40.5314 62.857 40.5314C62.519 40.5314 62.1949 40.6656 61.9559 40.9046C61.7169 41.1436 61.5827 41.4677 61.5827 41.8056V53.4866C61.5965 53.6619 61.5739 53.8381 61.5163 54.0041C61.4587 54.1702 61.3675 54.3225 61.2481 54.4516C61.1288 54.5807 60.9841 54.6837 60.8231 54.7541C60.662 54.8246 60.4881 54.861 60.3123 54.861C60.1366 54.861 59.9627 54.8246 59.8017 54.7541C59.6406 54.6837 59.4959 54.5807 59.3766 54.4516C59.2573 54.3225 59.166 54.1702 59.1084 54.0041C59.0509 53.8381 59.0282 53.6619 59.042 53.4866V36.8343C59.042 36.4964 58.9078 36.1723 58.6688 35.9333C58.4298 35.6943 58.1057 35.5601 57.7678 35.5601C57.4298 35.5601 57.1057 35.6943 56.8667 35.9333C56.6277 36.1723 56.4935 36.4964 56.4935 36.8343V57.7657C56.4935 58.1037 56.6277 58.4278 56.8667 58.6668C57.1057 58.9057 57.4298 59.04 57.7678 59.04C58.1057 59.04 58.4298 58.9057 58.6688 58.6668C58.9078 58.4278 59.042 58.1037 59.042 57.7657V57.8365C59.0672 57.5168 59.2119 57.2184 59.4474 57.0007C59.6829 56.7832 59.9917 56.6623 60.3123 56.6623C60.633 56.6623 60.9418 56.7832 61.1773 57.0007C61.4128 57.2184 61.5575 57.5168 61.5827 57.8365V62.737C61.5827 63.0749 61.7169 63.3991 61.9559 63.6381C62.1949 63.877 62.519 64.0113 62.857 64.0113C63.195 64.0113 63.519 63.877 63.758 63.6381C63.997 63.3991 64.1312 63.0749 64.1312 62.737V62.8943C64.1175 62.7191 64.14 62.5429 64.1976 62.3768C64.2552 62.2108 64.3466 62.0584 64.4659 61.9293C64.5852 61.8002 64.7299 61.6973 64.8909 61.6268C65.0519 61.5564 65.2259 61.52 65.4016 61.52C65.5774 61.52 65.7512 61.5564 65.9123 61.6268C66.0733 61.6973 66.2181 61.8002 66.3374 61.9293C66.4566 62.0584 66.548 62.2108 66.6056 62.3768C66.6632 62.5429 66.6858 62.7191 66.672 62.8943V68.5342C66.672 68.8722 66.8062 69.1963 67.0453 69.4353C67.2842 69.6742 67.6083 69.8085 67.9463 69.8085C68.2842 69.8085 68.6084 69.6742 68.8473 69.4353C69.0863 69.1963 69.2206 68.8722 69.2206 68.5342V57.0814C69.2206 56.7434 69.3548 56.4193 69.5937 56.1803C69.8328 55.9414 70.1569 55.8071 70.4949 55.8071C70.8328 55.8071 71.1569 55.9414 71.3959 56.1803C71.6349 56.4193 71.7692 56.7434 71.7692 57.0814V71.8379C71.7553 72.0132 71.778 72.1894 71.8355 72.3554C71.8931 72.5215 71.9844 72.6739 72.1037 72.8029C72.223 72.932 72.3678 73.035 72.5288 73.1055C72.6898 73.1759 72.8637 73.2123 73.0394 73.2123C73.2152 73.2123 73.3891 73.1759 73.5502 73.1055C73.7112 73.035 73.8559 72.932 73.9752 72.8029C74.0946 72.6739 74.1859 72.5215 74.2435 72.3554C74.301 72.1894 74.3236 72.0132 74.3098 71.8379V50.8987C74.3077 50.5621 74.1726 50.24 73.9339 50.0027C73.6951 49.7655 73.3722 49.6323 73.0355 49.6323Z" fill="#414042"/>
</svg>
