<svg width="100" height="100" viewBox="0 0 100 100" fill="none" xmlns="http://www.w3.org/2000/svg">
<path d="M100 0H6.10352e-05V100H100V0Z" fill="white"/>
<path d="M77.7311 67.1574C77.277 66.4346 76.6834 65.8095 75.9849 65.3187C75.2864 64.828 74.4971 64.4814 73.6631 64.2991C70.4724 63.5571 67.7051 61.5821 65.966 58.806C64.2269 56.0298 63.6574 52.6781 64.3819 49.4834C64.6604 48.2486 64.5679 46.959 64.1159 45.7766C63.6639 44.5942 62.8727 43.5717 61.8415 42.8376C60.8103 42.1034 59.5852 41.6904 58.32 41.6502C57.0548 41.6101 55.806 41.9446 54.7303 42.6119C53.6547 43.2792 52.8002 44.2494 52.2741 45.4008C51.7481 46.5522 51.574 47.8332 51.7737 49.0832C51.9733 50.3332 52.5379 51.4963 53.3965 52.4265C54.255 53.3566 55.3693 54.0124 56.5993 54.3113C58.1906 54.6702 59.6953 55.3397 61.0273 56.2814C62.3594 57.2229 63.4925 58.4182 64.3616 59.7985C65.2308 61.1789 65.819 62.7173 66.0925 64.3254C66.3661 65.9335 66.3196 67.5799 65.9556 69.17C65.7401 70.1951 65.7785 71.2573 66.0675 72.264C66.3566 73.2708 66.8876 74.1916 67.6141 74.9462C68.3406 75.7008 69.2405 76.2663 70.2356 76.5934C71.2307 76.9204 72.2907 76.9991 73.3232 76.8227C74.3557 76.6462 75.3294 76.2199 76.1594 75.581C76.9894 74.9419 77.6505 74.1097 78.0851 73.1567C78.5197 72.2035 78.7147 71.1587 78.6531 70.1131C78.5913 69.0674 78.2749 68.0527 77.7311 67.1574Z" fill="#414042"/>
<path d="M38.24 60.0276C39.3636 60.6407 40.6448 60.9042 41.9191 60.7842C43.1936 60.6642 44.403 60.1661 45.3923 59.3539C46.3817 58.5417 47.1059 57.4524 47.4718 56.2259C47.8378 54.9993 47.8289 53.6913 47.4463 52.4698C46.9614 50.9122 46.7886 49.2742 46.938 47.6498C47.0874 46.0253 47.5558 44.4463 48.3167 43.0033C49.0775 41.5602 50.1156 40.2815 51.3716 39.2405C52.6275 38.1994 54.0766 37.4166 55.6357 36.9367C56.845 36.558 57.915 35.83 58.7115 34.8444C59.5079 33.8589 59.995 32.6598 60.1115 31.398C60.2281 30.1363 59.9688 28.8682 59.3664 27.7535C58.7639 26.6387 57.8452 25.7271 56.7259 25.1333C55.6065 24.5395 54.3365 24.2899 53.0757 24.4163C51.8149 24.5425 50.6196 25.0389 49.6402 25.8429C48.6608 26.6469 47.9412 27.7227 47.5717 28.9347C47.2023 30.1468 47.1996 31.4411 47.5641 32.6546C48.5207 35.7876 48.1972 39.1721 46.6644 42.0672C45.1316 44.9623 42.5143 47.1322 39.3854 48.1021C38.1502 48.4603 37.051 49.181 36.23 50.171C35.409 51.161 34.9041 52.3746 34.7807 53.6547C34.6573 54.9349 34.9211 56.2226 35.5379 57.3512C36.1546 58.4798 37.096 59.3972 38.24 59.9847V60.0276Z" fill="#414042"/>
<path d="M54.7687 58.9784C53.9146 59.0084 53.0753 59.2085 52.2995 59.5669C51.5238 59.9254 50.8274 60.4349 50.2511 61.0659C48.0152 63.4574 44.9233 64.8664 41.6515 64.9848C38.3797 65.1032 35.194 63.9212 32.7912 61.6975C32.1703 61.115 31.4399 60.6616 30.6422 60.3639C29.8447 60.0662 28.9959 59.93 28.1452 59.9633C27.0981 60.0127 26.0789 60.3177 25.1767 60.8515C24.2745 61.3854 23.5168 62.1319 22.9696 63.026C22.4222 63.9201 22.1022 64.9346 22.0371 65.9809C21.9721 67.0272 22.1642 68.0734 22.5965 69.0284C23.0289 69.9834 23.6884 70.818 24.5176 71.4595C25.3467 72.101 26.3202 72.5297 27.3532 72.7083C28.3861 72.8869 29.4472 72.8101 30.4436 72.4844C31.44 72.1586 32.3415 71.594 33.0694 70.8397C34.1768 69.6407 35.5098 68.672 36.992 67.9891C38.4744 67.3062 40.0768 66.9223 41.7077 66.8597C43.3385 66.7971 44.9658 67.0568 46.4961 67.624C48.0264 68.1913 49.4298 69.0548 50.6258 70.1652C51.4045 70.8689 52.3437 71.3709 53.3612 71.6274C54.3788 71.8841 55.4437 71.8875 56.4629 71.6374C57.4821 71.3872 58.4244 70.8912 59.2075 70.1926C59.9906 69.494 60.5906 68.6142 60.9552 67.63C61.3196 66.6459 61.4373 65.5875 61.2982 64.5474C61.159 63.5072 60.767 62.5171 60.1565 61.6634C59.5461 60.8098 58.7359 60.1187 57.7967 59.6506C56.8574 59.1826 55.8177 58.9517 54.7687 58.9784Z" fill="#414042"/>
</svg>
