<svg width="100" height="101" viewBox="0 0 100 101" fill="none" xmlns="http://www.w3.org/2000/svg">
<path d="M100 0.979004H6.10352e-05V100.979H100V0.979004Z" fill="white"/>
<path opacity="0.95" d="M32.8011 68.713V77.8769L40.73 73.2911V64.135L32.8011 68.713Z" fill="#414042"/>
<path opacity="0.5" d="M31.5269 68.713V77.8769L23.598 73.2911V64.135L31.5269 68.713Z" fill="#414042"/>
<path opacity="0.3" d="M32.8011 58.8176V67.2422L40.1007 63.026L32.8011 58.8176Z" fill="#414042"/>
<path opacity="0.75" d="M31.5269 58.8176L24.2272 63.026L31.5269 67.2422V58.8176Z" fill="#414042"/>
<path opacity="0.95" d="M31.5269 56.568V47.4041L23.598 51.9899V61.146L31.5269 56.568Z" fill="#414042"/>
<path opacity="0.95" d="M32.8011 35.2589V44.4227L40.73 39.8368V30.6809L32.8011 35.2589Z" fill="#414042"/>
<path opacity="0.5" d="M31.5269 35.2589V44.4227L23.598 39.8368V30.6809L31.5269 35.2589Z" fill="#414042"/>
<path opacity="0.3" d="M32.8011 25.3635V33.7881L40.1007 29.5719L32.8011 25.3635Z" fill="#414042"/>
<path opacity="0.75" d="M31.5269 25.3635L24.2272 29.5719L31.5269 33.7881V25.3635Z" fill="#414042"/>
<path opacity="0.75" d="M24.2272 41.6619V50.0942L31.5269 45.878L24.2272 41.6619Z" fill="#414042"/>
<path opacity="0.15" d="M40.1007 41.6619L32.8011 45.878L40.1007 50.0942V41.6619Z" fill="#414042"/>
<path opacity="0.5" d="M32.8011 56.568V47.4041L40.73 51.9899V61.146L32.8011 56.568Z" fill="#414042"/>
<path opacity="0.95" d="M51.2861 68.713V77.8769L59.2151 73.2911V64.135L51.2861 68.713Z" fill="#414042"/>
<path opacity="0.5" d="M50.0119 68.713V77.8769L42.083 73.2911V64.135L50.0119 68.713Z" fill="#414042"/>
<path opacity="0.3" d="M51.2861 58.8176V67.2422L58.5857 63.026L51.2861 58.8176Z" fill="#414042"/>
<path opacity="0.75" d="M50.0119 58.8176L42.7122 63.026L50.0119 67.2422V58.8176Z" fill="#414042"/>
<path opacity="0.95" d="M50.0119 56.568V47.4041L42.083 51.9899V61.146L50.0119 56.568Z" fill="#414042"/>
<path opacity="0.95" d="M51.2861 35.2589V44.4227L59.2151 39.8368V30.6809L51.2861 35.2589Z" fill="#414042"/>
<path opacity="0.5" d="M50.0119 35.2589V44.4227L42.083 39.8368V30.6809L50.0119 35.2589Z" fill="#414042"/>
<path opacity="0.3" d="M51.2861 25.3635V33.7881L58.5857 29.5719L51.2861 25.3635Z" fill="#414042"/>
<path opacity="0.75" d="M50.0119 25.3635L42.7122 29.5719L50.0119 33.7881V25.3635Z" fill="#414042"/>
<path opacity="0.75" d="M42.7122 41.6619V50.0942L50.0119 45.878L42.7122 41.6619Z" fill="#414042"/>
<path opacity="0.15" d="M58.5857 41.6619L51.2861 45.878L58.5857 50.0942V41.6619Z" fill="#414042"/>
<path opacity="0.5" d="M51.2861 56.568V47.4041L59.2151 51.9899V61.146L51.2861 56.568Z" fill="#414042"/>
<path opacity="0.95" d="M69.5037 68.713V77.8769L77.4403 73.2911V64.135L69.5037 68.713Z" fill="#414042"/>
<path opacity="0.5" d="M68.2372 68.713V77.8769L60.3005 73.2911V64.135L68.2372 68.713Z" fill="#414042"/>
<path opacity="0.3" d="M69.5037 58.8176V67.2422L76.8032 63.026L69.5037 58.8176Z" fill="#414042"/>
<path opacity="0.75" d="M68.2373 58.8176L60.9377 63.026L68.2373 67.2422V58.8176Z" fill="#414042"/>
<path opacity="0.95" d="M68.2372 56.568V47.4041L60.3005 51.9899V61.146L68.2372 56.568Z" fill="#414042"/>
<path opacity="0.95" d="M69.5037 35.2589V44.4227L77.4403 39.8368V30.6809L69.5037 35.2589Z" fill="#414042"/>
<path opacity="0.5" d="M68.2372 35.2589V44.4227L60.3005 39.8368V30.6809L68.2372 35.2589Z" fill="#414042"/>
<path opacity="0.3" d="M69.5037 25.3635V33.7881L76.8032 29.5719L69.5037 25.3635Z" fill="#414042"/>
<path opacity="0.75" d="M68.2373 25.3635L60.9377 29.5719L68.2373 33.7881V25.3635Z" fill="#414042"/>
<path opacity="0.75" d="M60.9377 41.6619V50.0942L68.2373 45.878L60.9377 41.6619Z" fill="#414042"/>
<path opacity="0.15" d="M76.8032 41.6619L69.5037 45.878L76.8032 50.0942V41.6619Z" fill="#414042"/>
<path opacity="0.5" d="M69.5037 56.568V47.4041L77.4403 51.9899V61.146L69.5037 56.568Z" fill="#414042"/>
</svg>
