<svg width="1440" height="180" viewBox="0 0 1440 180" fill="none" xmlns="http://www.w3.org/2000/svg">
<path fill-rule="evenodd" clip-rule="evenodd" d="M1440 143.623L1359.6 155.592C1280.4 167.56 1119.6 191.497 960 173.544C800.4 155.592 639.6 95.7487 480 71.8115C320.4 47.8744 159.6 59.8429 80.4 65.8272L8.58307e-05 71.8115V1.07288e-05H80.4C159.6 1.07288e-05 320.4 1.07288e-05 480 1.07288e-05C639.6 1.07288e-05 800.4 1.07288e-05 960 1.07288e-05C1119.6 1.07288e-05 1280.4 1.07288e-05 1359.6 1.07288e-05L1440 1.07288e-05V143.623Z" fill="#270B43"/>
</svg>
